Coordinates
nRows=318
nColumns=2
inDegrees=yes
endheader
time	ankle_angle_r	
2.66112	  0.228882	
2.69438	  0.183105	
2.72765	  0.198364	
2.76091	  0.305176	
2.79418	  0.183105	
2.82744	  0.228882	
2.8607	  0.289917	
2.89397	  0.213623	
2.92723	  0.289917	
2.9605	  0.335693	
2.99376	  0.259399	
3.02702	  0.305176	
3.06029	  0.335693	
3.09355	  0.259399	
3.12682	  0.289917	
3.16008	  0.335693	
3.19334	  0.289917	
3.22661	  0.335693	
3.25987	  0.320435	
3.29314	  0.259399	
3.3264	  0.350952	
3.35966	  0.259399	
3.39293	  0.183105	
3.42619	  0.274658	
3.45946	  0.259399	
3.49272	  0.183105	
3.52598	  0.289917	
3.55925	  0.274658	
3.59251	  0.183105	
3.62578	  0.228882	
3.65904	  0.244141	
3.6923	  0.167847	
3.72557	  0.213623	
3.75883	  0.228882	
3.7921	  0.167847	
3.82536	  0.213623	
3.85862	  0.228882	
3.89189	  0.137329	
3.92515	  0.213623	
3.95842	  0.228882	
3.99168	  0.137329	
4.02494	  0.259399	
4.05821	  0.198364	
4.09147	  0.167847	
4.12474	  0.305176	
4.158	  0.213623	
4.19126	  0.213623	
4.22453	  0.289917	
4.25779	  0.213623	
4.29106	  0.259399	
4.32432	  0.305176	
4.35758	  0.228882	
4.39085	  0.213623	
4.42411	  0.274658	
4.45738	  0.228882	
4.49064	  0.213623	
4.5239	  0.289917	
4.55717	  0.183105	
4.59043	  0.213623	
4.6237	  0.274658	
4.65696	  0.213623	
4.69022	  0.198364	
4.72349	  0.289917	
4.75675	  0.228882	
4.79002	  0.183105	
4.82328	  0.244141	
4.85654	  0.213623	
4.88981	  0.213623	
4.92307	  0.289917	
4.95634	  0.244141	
4.9896	  0.198364	
5.02286	  0.289917	
5.05613	  0.244141	
5.08939	  0.228882	
5.12266	  0.305176	
5.15592	  0.244141	
5.18918	  0.244141	
5.22245	  0.305176	
5.25571	  0.213623	
5.28898	  0.244141	
5.32224	  0.320435	
5.3555	  0.183105	
5.38877	  0.289917	
5.42203	  0.305176	
5.4553	  0.213623	
5.48856	  0.305176	
5.52182	  0.289917	
5.55509	  0.198364	
5.58835	  0.259399	
5.62162	  0.305176	
5.65488	  0.183105	
5.68814	  0.244141	
5.72141	  0.213623	
5.75467	  0.152588	
5.78794	  0.213623	
5.8212	  0.244141	
5.85446	  0.152588	
5.88773	  0.244141	
5.92099	  0.244141	
5.95426	  0.152588	
5.98752	  0.244141	
6.02078	  0.259399	
6.05405	  0.167847	
6.08731	  0.198364	
6.12058	  0.244141	
6.15384	  0.167847	
6.1871	  0.228882	
6.22037	  0.244141	
6.25363	  0.167847	
6.2869	  0.198364	
6.32016	  0.305176	
6.35342	  0.183105	
6.38669	  0.259399	
6.41995	  0.244141	
6.45322	  0.244141	
6.48648	  0.305176	
6.51974	  0.305176	
6.55301	  0.213623	
6.58627	  0.274658	
6.61954	  0.244141	
6.6528	  0.244141	
6.68606	  0.305176	
6.71933	  0.213623	
6.75259	  0.244141	
6.78586	  0.274658	
6.81912	  0.198364	
6.85238	  0.228882	
6.88565	  0.244141	
6.91891	  0.167847	
6.95218	  0.198364	
6.98544	  0.244141	
7.0187	  0.122070	
7.05197	  0.122070	
7.08523	  0.183105	
7.1185	  0.106812	
7.15176	  0.091553	
7.18502	  0.183105	
7.21829	  0.076294	
7.25155	  0.122070	
7.28482	  0.152588	
7.31808	  0.122070	
7.35134	  0.091553	
7.38461	  0.167847	
7.41787	  0.076294	
7.45114	  0.061035	
7.4844	  0.183105	
7.51766	  0.122070	
7.55093	  0.076294	
7.58419	  0.198364	
7.61746	  0.122070	
7.65072	  0.122070	
7.68398	  0.183105	
7.71725	  0.167847	
7.75051	  0.167847	
7.78378	  0.183105	
7.81704	  0.167847	
7.8503	  0.198364	
7.88357	  0.228882	
7.91683	  0.183105	
7.9501	  0.289917	
7.98336	  0.259399	
8.01662	  0.228882	
8.04989	  0.320435	
8.08315	  0.305176	
8.11642	  0.274658	
8.14968	  0.320435	
8.18294	  0.335693	
8.21621	  0.274658	
8.24947	  0.335693	
8.28274	  0.320435	
8.316	  0.274658	
8.34926	  0.350952	
8.38253	  0.320435	
8.41579	  0.259399	
8.44906	  0.320435	
8.48232	  0.335693	
8.51558	  0.213623	
8.54885	  0.244141	
8.58211	  0.274658	
8.61538	  0.167847	
8.64864	  0.213623	
8.6819	  0.274658	
8.71517	  0.183105	
8.74843	  0.213623	
8.7817	  0.228882	
8.81496	  0.183105	
8.84822	  0.213623	
8.88149	  0.228882	
8.91475	  0.167847	
8.94802	  0.198364	
8.98128	  0.228882	
9.01454	  0.137329	
9.04781	  0.228882	
9.08107	  0.228882	
9.11434	  0.167847	
9.1476	  0.244141	
9.18086	  0.137329	
9.21413	  0.198364	
9.24739	  0.183105	
9.28066	  0.137329	
9.31392	  0.213623	
9.34718	  0.259399	
9.38045	  0.167847	
9.41371	  0.213623	
9.44698	  0.289917	
9.48024	  0.183105	
9.5135	  0.213623	
9.54677	  0.274658	
9.58003	  0.198364	
9.6133	  0.198364	
9.64656	  0.289917	
9.67982	  0.213623	
9.71309	  0.228882	
9.74635	  0.289917	
9.77962	  0.228882	
9.81288	  0.198364	
9.84614	  0.289917	
9.87941	  0.244141	
9.91267	  0.183105	
9.94594	  0.305176	
9.9792	  0.244141	
10.0125	  0.228882	
10.0457	  0.274658	
10.079	  0.228882	
10.1123	  0.213623	
10.1455	  0.305176	
10.1788	  0.244141	
10.212	  0.183105	
10.2453	  0.305176	
10.2786	  0.244141	
10.3118	  0.259399	
10.3451	  0.305176	
10.3784	  0.228882	
10.4116	  0.274658	
10.4449	  0.305176	
10.4782	  0.259399	
10.5114	  0.305176	
10.5447	  0.305176	
10.578	  0.274658	
10.6112	  0.350952	
10.6445	  0.335693	
10.6777	  0.274658	
10.711	  0.320435	
10.7443	  0.305176	
10.7775	  0.213623	
10.8108	  0.305176	
10.8441	  0.244141	
10.8773	  0.167847	
10.9106	  0.244141	
10.9439	  0.198364	
10.9771	  0.183105	
11.0104	  0.198364	
11.0436	  0.244141	
11.0769	  0.152588	
11.1102	  0.213623	
11.1434	  0.244141	
11.1767	  0.152588	
11.21	  0.213623	
11.2432	  0.244141	
11.2765	  0.183105	
11.3098	  0.198364	
11.343	  0.228882	
11.3763	  0.198364	
11.4096	  0.213623	
11.4428	  0.259399	
11.4761	  0.213623	
11.5093	  0.274658	
11.5426	  0.289917	
11.5759	  0.198364	
11.6091	  0.289917	
11.6424	  0.274658	
11.6757	  0.213623	
11.7089	  0.274658	
11.7422	  0.259399	
11.7755	  0.228882	
11.8087	  0.320435	
11.842	  0.198364	
11.8752	  0.198364	
11.9085	  0.274658	
11.9418	  0.198364	
11.975	  0.198364	
12.0083	  0.274658	
12.0416	  0.198364	
12.0748	  0.244141	
12.1081	  0.259399	
12.1414	  0.183105	
12.1746	  0.137329	
12.2079	  0.228882	
12.2412	  0.152588	
12.2744	  0.152588	
12.3077	  0.198364	
12.3409	  0.122070	
12.3742	  0.091553	
12.4075	  0.183105	
12.4407	  0.106812	
12.474	  0.106812	
12.5073	  0.198364	
12.5405	  0.137329	
12.5738	  0.076294	
12.6071	  0.152588	
12.6403	  0.122070	
12.6736	  0.076294	
12.7068	  0.183105	
12.7401	  0.122070	
12.7734	  0.106812	
12.8066	  0.183105	
12.8399	  0.122070	
12.8732	  0.091553	
12.9064	  0.183105	
12.9397	  0.137329	
12.973	  0.213623	
13.0062	  0.228882	
13.0395	  0.198364	
13.0728	  0.289917	
13.106	  0.289917	
13.1393	  0.228882	
13.1725	  0.305176	
13.2058	  0.320435	
